<?xml version="1.0" encoding="UTF-8"?>
<svg xmlns="http://www.w3.org/2000/svg" xmlns:xlink="http://www.w3.org/1999/xlink" width="1920" height="1080" viewBox="0 0 1920 1080">
<defs>
<g>
<g id="glyph-0-0">
<path d="M 5.488281 0 L 0.914062 0 L 0.914062 -0.480469 C 1.050781 -0.492188 1.261719 -0.511719 1.550781 -0.539062 C 1.835938 -0.570312 2.035156 -0.597656 2.144531 -0.628906 C 2.285156 -0.675781 2.390625 -0.75 2.464844 -0.851562 C 2.539062 -0.953125 2.578125 -1.105469 2.578125 -1.308594 L 2.578125 -6.070312 L 0.886719 -6.070312 L 0.886719 -6.640625 L 1.261719 -6.640625 C 1.75 -6.640625 2.1875 -6.730469 2.574219 -6.910156 C 2.960938 -7.089844 3.238281 -7.285156 3.40625 -7.492188 L 3.96875 -7.492188 C 3.953125 -7.199219 3.941406 -6.855469 3.925781 -6.464844 C 3.914062 -6.070312 3.90625 -5.71875 3.90625 -5.40625 L 3.90625 -1.382812 C 3.90625 -1.226562 3.941406 -1.082031 4.011719 -0.960938 C 4.082031 -0.835938 4.183594 -0.742188 4.3125 -0.683594 C 4.429688 -0.636719 4.621094 -0.589844 4.890625 -0.550781 C 5.15625 -0.507812 5.355469 -0.484375 5.488281 -0.480469 Z "/>
</g>
<g id="glyph-0-1">
<path d="M 6.980469 -6.835938 L 2.148438 2.476562 L 1.296875 2.476562 L 5.839844 -6.136719 L 3.179688 -6.136719 C 2.789062 -6.136719 2.480469 -6.132812 2.257812 -6.125 C 2.035156 -6.113281 1.832031 -6.070312 1.648438 -5.996094 C 1.507812 -5.9375 1.382812 -5.785156 1.273438 -5.542969 C 1.160156 -5.300781 1.074219 -4.992188 1.015625 -4.617188 L 0.605469 -4.617188 L 0.605469 -7.277344 L 6.980469 -7.277344 Z "/>
</g>
<g id="glyph-0-2">
<path d="M 2.910156 -0.238281 C 2.910156 0.0898438 2.835938 0.394531 2.6875 0.683594 C 2.542969 0.972656 2.375 1.222656 2.183594 1.429688 C 1.988281 1.648438 1.785156 1.839844 1.566406 2.007812 C 1.347656 2.175781 1.152344 2.304688 0.96875 2.402344 L 0.65625 1.945312 C 0.875 1.8125 1.070312 1.675781 1.242188 1.539062 C 1.414062 1.402344 1.554688 1.269531 1.660156 1.132812 C 1.796875 0.972656 1.914062 0.800781 2.007812 0.617188 C 2.101562 0.433594 2.164062 0.222656 2.191406 -0.0117188 L 1.84375 -0.0117188 C 1.542969 -0.0117188 1.304688 -0.09375 1.136719 -0.25 C 0.964844 -0.410156 0.882812 -0.621094 0.882812 -0.886719 C 0.882812 -1.078125 0.957031 -1.261719 1.113281 -1.441406 C 1.265625 -1.621094 1.476562 -1.710938 1.742188 -1.710938 C 2.132812 -1.710938 2.421875 -1.578125 2.617188 -1.320312 C 2.8125 -1.058594 2.910156 -0.699219 2.910156 -0.238281 Z "/>
</g>
<g id="glyph-0-3">
<path d="M 7.289062 -3.121094 C 7.289062 -2.652344 7.207031 -2.210938 7.035156 -1.800781 C 6.867188 -1.390625 6.640625 -1.039062 6.355469 -0.75 C 6.023438 -0.421875 5.660156 -0.179688 5.257812 -0.0195312 C 4.859375 0.136719 4.441406 0.21875 4.007812 0.21875 C 3.507812 0.21875 3.050781 0.125 2.644531 -0.0625 C 2.238281 -0.246094 1.890625 -0.507812 1.605469 -0.847656 C 1.316406 -1.191406 1.09375 -1.609375 0.9375 -2.109375 C 0.777344 -2.605469 0.699219 -3.164062 0.699219 -3.78125 C 0.699219 -5.394531 1.179688 -6.753906 2.140625 -7.863281 C 3.101562 -8.96875 4.386719 -9.632812 6.003906 -9.855469 L 6.125 -9.242188 L 5.515625 -9.136719 C 4.53125 -8.820312 3.773438 -8.324219 3.238281 -7.65625 C 2.703125 -6.988281 2.355469 -6.175781 2.199219 -5.222656 C 2.585938 -5.5625 2.96875 -5.800781 3.351562 -5.941406 C 3.730469 -6.082031 4.128906 -6.152344 4.550781 -6.152344 C 5.304688 -6.152344 5.949219 -5.863281 6.488281 -5.285156 C 7.023438 -4.707031 7.289062 -3.984375 7.289062 -3.121094 M 5.820312 -2.941406 C 5.820312 -3.675781 5.652344 -4.261719 5.3125 -4.707031 C 4.976562 -5.148438 4.527344 -5.371094 3.960938 -5.371094 C 3.621094 -5.371094 3.304688 -5.308594 3.015625 -5.179688 C 2.722656 -5.054688 2.441406 -4.84375 2.171875 -4.542969 C 2.164062 -4.488281 2.160156 -4.363281 2.148438 -4.167969 C 2.140625 -3.972656 2.136719 -3.816406 2.136719 -3.703125 C 2.136719 -2.644531 2.308594 -1.816406 2.65625 -1.21875 C 3 -0.617188 3.457031 -0.320312 4.023438 -0.320312 C 4.558594 -0.320312 4.992188 -0.550781 5.324219 -1.019531 C 5.652344 -1.488281 5.820312 -2.128906 5.820312 -2.941406 Z "/>
</g>
<g id="glyph-0-4">
<path d="M 5.34375 -7.34375 C 5.34375 -6.550781 5.128906 -5.933594 4.699219 -5.492188 C 4.269531 -5.054688 3.714844 -4.835938 3.039062 -4.835938 C 2.359375 -4.835938 1.808594 -5.054688 1.378906 -5.492188 C 0.953125 -5.933594 0.738281 -6.550781 0.738281 -7.34375 C 0.738281 -8.09375 0.949219 -8.703125 1.367188 -9.164062 C 1.785156 -9.625 2.34375 -9.855469 3.046875 -9.855469 C 3.738281 -9.855469 4.292969 -9.625 4.714844 -9.164062 C 5.132812 -8.703125 5.34375 -8.09375 5.34375 -7.34375 M 4.199219 -7.34375 C 4.199219 -7.933594 4.101562 -8.417969 3.90625 -8.792969 C 3.710938 -9.171875 3.425781 -9.359375 3.046875 -9.359375 C 2.65625 -9.359375 2.367188 -9.171875 2.171875 -8.792969 C 1.980469 -8.417969 1.886719 -7.933594 1.886719 -7.34375 C 1.886719 -6.742188 1.984375 -6.253906 2.175781 -5.886719 C 2.371094 -5.515625 2.660156 -5.332031 3.039062 -5.332031 C 3.417969 -5.332031 3.707031 -5.515625 3.902344 -5.886719 C 4.101562 -6.253906 4.199219 -6.742188 4.199219 -7.34375 M 10.613281 -2.292969 C 10.613281 -1.496094 10.398438 -0.878906 9.96875 -0.441406 C 9.539062 -0.00390625 8.984375 0.21875 8.308594 0.21875 C 7.628906 0.21875 7.078125 -0.00390625 6.648438 -0.441406 C 6.222656 -0.878906 6.007812 -1.496094 6.007812 -2.292969 C 6.007812 -3.042969 6.21875 -3.648438 6.636719 -4.109375 C 7.054688 -4.570312 7.613281 -4.800781 8.316406 -4.800781 C 9.007812 -4.800781 9.5625 -4.570312 9.984375 -4.109375 C 10.402344 -3.648438 10.613281 -3.042969 10.613281 -2.292969 M 9.46875 -2.292969 C 9.46875 -2.882812 9.371094 -3.363281 9.175781 -3.742188 C 8.980469 -4.117188 8.695312 -4.304688 8.316406 -4.304688 C 7.925781 -4.304688 7.636719 -4.117188 7.441406 -3.742188 C 7.25 -3.363281 7.15625 -2.882812 7.15625 -2.292969 C 7.15625 -1.6875 7.253906 -1.203125 7.445312 -0.832031 C 7.640625 -0.464844 7.929688 -0.277344 8.308594 -0.277344 C 8.6875 -0.277344 8.976562 -0.464844 9.171875 -0.832031 C 9.371094 -1.203125 9.46875 -1.6875 9.46875 -2.292969 M 10.167969 -9.65625 L 2.167969 0 L 1.234375 0 L 9.214844 -9.65625 Z "/>
</g>
</g>
</defs>
<g fill="rgb(100%, 52.54902%, 18.431373%)" fill-opacity="1">
<use xlink:href="#glyph-0-0" x="30" y="32.735352"/>
<use xlink:href="#glyph-0-1" x="36" y="32.735352"/>
<use xlink:href="#glyph-0-2" x="43" y="32.735352"/>
<use xlink:href="#glyph-0-3" x="47" y="32.735352"/>
<use xlink:href="#glyph-0-1" x="55" y="32.735352"/>
<use xlink:href="#glyph-0-4" x="62" y="32.735352"/>
</g>
</svg>
