<?xml version="1.0" encoding="UTF-8"?>
<svg xmlns="http://www.w3.org/2000/svg" xmlns:xlink="http://www.w3.org/1999/xlink" width="1920" height="1080" viewBox="0 0 1920 1080">
<defs>
<g>
<g id="glyph-0-0">
<path d="M 6.832031 -6.0625 L 6.402344 -6.0625 C 6.324219 -6.359375 6.15625 -6.683594 5.90625 -7.023438 C 5.652344 -7.367188 5.410156 -7.554688 5.179688 -7.585938 C 5.058594 -7.601562 4.921875 -7.613281 4.757812 -7.621094 C 4.597656 -7.628906 4.414062 -7.632812 4.210938 -7.632812 L 2.855469 -7.632812 L 2.855469 -4.386719 L 3.785156 -4.386719 C 4.066406 -4.386719 4.285156 -4.414062 4.441406 -4.476562 C 4.597656 -4.535156 4.730469 -4.625 4.839844 -4.746094 C 4.917969 -4.828125 4.988281 -4.957031 5.050781 -5.136719 C 5.113281 -5.3125 5.152344 -5.5 5.171875 -5.703125 L 5.601562 -5.703125 L 5.601562 -2.523438 L 5.171875 -2.523438 C 5.160156 -2.691406 5.121094 -2.878906 5.054688 -3.09375 C 4.988281 -3.304688 4.917969 -3.460938 4.839844 -3.554688 C 4.726562 -3.695312 4.582031 -3.792969 4.410156 -3.84375 C 4.238281 -3.894531 4.027344 -3.917969 3.785156 -3.917969 L 2.855469 -3.917969 L 2.855469 -1.136719 C 2.855469 -1.011719 2.878906 -0.902344 2.929688 -0.800781 C 2.976562 -0.703125 3.066406 -0.625 3.191406 -0.5625 C 3.246094 -0.539062 3.371094 -0.503906 3.558594 -0.46875 C 3.75 -0.429688 3.894531 -0.410156 3.992188 -0.40625 L 3.992188 0 L 0.488281 0 L 0.488281 -0.40625 C 0.605469 -0.410156 0.753906 -0.425781 0.945312 -0.441406 C 1.136719 -0.457031 1.257812 -0.480469 1.316406 -0.507812 C 1.429688 -0.554688 1.511719 -0.628906 1.5625 -0.726562 C 1.613281 -0.824219 1.640625 -0.941406 1.640625 -1.078125 L 1.640625 -6.910156 C 1.640625 -7.035156 1.621094 -7.144531 1.578125 -7.242188 C 1.535156 -7.339844 1.449219 -7.417969 1.316406 -7.480469 C 1.214844 -7.527344 1.074219 -7.574219 0.902344 -7.609375 C 0.730469 -7.648438 0.59375 -7.671875 0.488281 -7.679688 L 0.488281 -8.082031 L 6.832031 -8.082031 Z "/>
</g>
<g id="glyph-0-1">
<path d="M 7.085938 -7.125 C 7.445312 -6.753906 7.722656 -6.304688 7.925781 -5.777344 C 8.125 -5.253906 8.226562 -4.671875 8.226562 -4.03125 C 8.226562 -3.390625 8.125 -2.808594 7.917969 -2.285156 C 7.714844 -1.761719 7.429688 -1.3125 7.0625 -0.945312 C 6.710938 -0.582031 6.300781 -0.300781 5.832031 -0.101562 C 5.367188 0.09375 4.867188 0.195312 4.339844 0.195312 C 3.777344 0.195312 3.257812 0.0898438 2.78125 -0.121094 C 2.304688 -0.332031 1.898438 -0.625 1.554688 -1.003906 C 1.214844 -1.371094 0.945312 -1.816406 0.75 -2.34375 C 0.554688 -2.871094 0.457031 -3.433594 0.457031 -4.03125 C 0.457031 -4.691406 0.558594 -5.277344 0.761719 -5.789062 C 0.96875 -6.304688 1.25 -6.75 1.613281 -7.125 C 1.96875 -7.5 2.382812 -7.785156 2.855469 -7.980469 C 3.328125 -8.179688 3.824219 -8.277344 4.339844 -8.277344 C 4.875 -8.277344 5.382812 -8.175781 5.855469 -7.976562 C 6.332031 -7.773438 6.742188 -7.492188 7.085938 -7.125 M 6.238281 -1.394531 C 6.449219 -1.742188 6.605469 -2.132812 6.703125 -2.570312 C 6.800781 -3.007812 6.847656 -3.492188 6.847656 -4.03125 C 6.847656 -4.585938 6.792969 -5.097656 6.683594 -5.558594 C 6.578125 -6.023438 6.417969 -6.417969 6.210938 -6.746094 C 6 -7.066406 5.738281 -7.320312 5.421875 -7.5 C 5.109375 -7.679688 4.746094 -7.769531 4.339844 -7.769531 C 3.886719 -7.769531 3.496094 -7.664062 3.179688 -7.457031 C 2.859375 -7.246094 2.597656 -6.96875 2.398438 -6.621094 C 2.207031 -6.285156 2.066406 -5.894531 1.972656 -5.445312 C 1.878906 -4.996094 1.835938 -4.527344 1.835938 -4.03125 C 1.835938 -3.484375 1.882812 -2.992188 1.984375 -2.550781 C 2.082031 -2.113281 2.238281 -1.71875 2.449219 -1.378906 C 2.65625 -1.042969 2.914062 -0.785156 3.222656 -0.59375 C 3.535156 -0.40625 3.90625 -0.3125 4.339844 -0.3125 C 4.746094 -0.3125 5.113281 -0.410156 5.441406 -0.597656 C 5.765625 -0.789062 6.03125 -1.054688 6.238281 -1.394531 M 5.195312 -9.542969 C 5.027344 -9.457031 4.769531 -9.332031 4.417969 -9.164062 C 4.066406 -8.992188 3.667969 -8.800781 3.222656 -8.585938 L 3.046875 -8.808594 C 3.394531 -9.136719 3.675781 -9.410156 3.894531 -9.625 C 4.113281 -9.839844 4.328125 -10.058594 4.539062 -10.28125 C 4.660156 -10.410156 4.773438 -10.503906 4.875 -10.558594 C 4.972656 -10.613281 5.082031 -10.640625 5.195312 -10.640625 C 5.339844 -10.640625 5.464844 -10.597656 5.566406 -10.511719 C 5.667969 -10.421875 5.71875 -10.316406 5.71875 -10.1875 C 5.71875 -10.023438 5.671875 -9.894531 5.570312 -9.796875 C 5.472656 -9.703125 5.347656 -9.617188 5.195312 -9.542969 Z "/>
</g>
<g id="glyph-0-2">
<path d="M 8.429688 0 L 6.253906 0 C 5.773438 -0.753906 5.335938 -1.410156 4.949219 -1.960938 C 4.558594 -2.511719 4.136719 -3.078125 3.683594 -3.664062 L 2.855469 -3.664062 L 2.855469 -1.097656 C 2.855469 -0.964844 2.875 -0.851562 2.917969 -0.75 C 2.957031 -0.648438 3.046875 -0.570312 3.183594 -0.519531 C 3.253906 -0.492188 3.371094 -0.46875 3.542969 -0.445312 C 3.714844 -0.421875 3.859375 -0.410156 3.976562 -0.40625 L 3.976562 0 L 0.558594 0 L 0.558594 -0.40625 C 0.648438 -0.410156 0.78125 -0.425781 0.953125 -0.445312 C 1.128906 -0.464844 1.246094 -0.488281 1.316406 -0.519531 C 1.429688 -0.566406 1.511719 -0.640625 1.5625 -0.734375 C 1.613281 -0.828125 1.640625 -0.953125 1.640625 -1.097656 L 1.640625 -6.945312 C 1.640625 -7.078125 1.621094 -7.195312 1.582031 -7.296875 C 1.546875 -7.398438 1.457031 -7.476562 1.316406 -7.53125 C 1.222656 -7.566406 1.097656 -7.597656 0.945312 -7.625 C 0.792969 -7.652344 0.664062 -7.671875 0.558594 -7.679688 L 0.558594 -8.082031 L 4.289062 -8.082031 C 4.632812 -8.082031 4.953125 -8.046875 5.253906 -7.976562 C 5.550781 -7.90625 5.824219 -7.792969 6.066406 -7.640625 C 6.300781 -7.488281 6.492188 -7.289062 6.632812 -7.042969 C 6.769531 -6.800781 6.839844 -6.503906 6.839844 -6.15625 C 6.839844 -5.847656 6.792969 -5.570312 6.699219 -5.332031 C 6.605469 -5.09375 6.464844 -4.886719 6.277344 -4.710938 C 6.105469 -4.546875 5.902344 -4.40625 5.664062 -4.285156 C 5.421875 -4.167969 5.160156 -4.066406 4.871094 -3.980469 C 5.269531 -3.453125 5.601562 -3.007812 5.863281 -2.648438 C 6.128906 -2.289062 6.453125 -1.847656 6.835938 -1.332031 C 7.003906 -1.105469 7.152344 -0.9375 7.289062 -0.828125 C 7.421875 -0.71875 7.558594 -0.632812 7.691406 -0.5625 C 7.789062 -0.515625 7.914062 -0.476562 8.0625 -0.449219 C 8.207031 -0.421875 8.332031 -0.410156 8.429688 -0.40625 L 8.429688 0 M 5.433594 -6.023438 C 5.433594 -6.511719 5.292969 -6.902344 5.011719 -7.1875 C 4.730469 -7.472656 4.335938 -7.617188 3.824219 -7.617188 L 2.855469 -7.617188 L 2.855469 -4.152344 L 3.601562 -4.152344 C 4.125 -4.152344 4.5625 -4.320312 4.910156 -4.65625 C 5.261719 -4.992188 5.433594 -5.449219 5.433594 -6.023438 Z "/>
</g>
<g id="glyph-0-3">
<path d="M 10.289062 0 L 6.714844 0 L 6.714844 -0.40625 C 6.84375 -0.410156 7.011719 -0.421875 7.214844 -0.445312 C 7.417969 -0.46875 7.558594 -0.5 7.632812 -0.542969 C 7.75 -0.613281 7.835938 -0.695312 7.894531 -0.789062 C 7.949219 -0.882812 7.976562 -1 7.976562 -1.140625 L 7.976562 -7.019531 L 7.890625 -7.019531 L 5.132812 -0.132812 L 4.847656 -0.132812 L 2.222656 -7.160156 L 2.148438 -7.160156 L 2.148438 -2.335938 C 2.148438 -1.867188 2.175781 -1.511719 2.234375 -1.269531 C 2.292969 -1.027344 2.386719 -0.851562 2.507812 -0.746094 C 2.589844 -0.667969 2.761719 -0.589844 3.023438 -0.519531 C 3.285156 -0.445312 3.457031 -0.410156 3.539062 -0.40625 L 3.539062 0 L 0.273438 0 L 0.273438 -0.40625 C 0.445312 -0.417969 0.625 -0.449219 0.8125 -0.488281 C 1 -0.53125 1.144531 -0.59375 1.246094 -0.679688 C 1.378906 -0.785156 1.472656 -0.949219 1.519531 -1.167969 C 1.570312 -1.386719 1.59375 -1.757812 1.59375 -2.273438 L 1.59375 -6.410156 C 1.59375 -6.648438 1.566406 -6.84375 1.507812 -6.996094 C 1.453125 -7.148438 1.371094 -7.269531 1.265625 -7.367188 C 1.148438 -7.46875 1.003906 -7.542969 0.832031 -7.59375 C 0.660156 -7.644531 0.492188 -7.671875 0.324219 -7.679688 L 0.324219 -8.082031 L 3.082031 -8.082031 L 5.394531 -2.015625 L 7.375 -7.089844 C 7.445312 -7.277344 7.507812 -7.472656 7.558594 -7.675781 C 7.609375 -7.878906 7.636719 -8.015625 7.640625 -8.082031 L 10.277344 -8.082031 L 10.277344 -7.679688 C 10.171875 -7.675781 10.035156 -7.65625 9.871094 -7.628906 C 9.703125 -7.597656 9.582031 -7.570312 9.507812 -7.542969 C 9.378906 -7.496094 9.292969 -7.421875 9.246094 -7.3125 C 9.199219 -7.207031 9.175781 -7.09375 9.175781 -6.96875 L 9.175781 -1.140625 C 9.175781 -1.007812 9.199219 -0.894531 9.246094 -0.804688 C 9.292969 -0.710938 9.378906 -0.632812 9.507812 -0.5625 C 9.574219 -0.527344 9.699219 -0.492188 9.871094 -0.457031 C 10.046875 -0.425781 10.183594 -0.410156 10.289062 -0.40625 Z "/>
</g>
<g id="glyph-0-4">
<path d="M 8.734375 -7.679688 C 8.625 -7.675781 8.472656 -7.652344 8.265625 -7.609375 C 8.0625 -7.570312 7.894531 -7.507812 7.765625 -7.421875 C 7.636719 -7.335938 7.546875 -7.15625 7.496094 -6.882812 C 7.449219 -6.609375 7.421875 -6.273438 7.421875 -5.878906 L 7.421875 -2.363281 C 7.421875 -1.914062 7.328125 -1.527344 7.144531 -1.195312 C 6.957031 -0.867188 6.710938 -0.59375 6.410156 -0.382812 C 6.109375 -0.175781 5.792969 -0.03125 5.460938 0.0585938 C 5.128906 0.148438 4.808594 0.195312 4.507812 0.195312 C 4.019531 0.195312 3.585938 0.128906 3.207031 0.00390625 C 2.828125 -0.125 2.507812 -0.296875 2.25 -0.511719 C 1.996094 -0.730469 1.804688 -0.976562 1.675781 -1.257812 C 1.546875 -1.535156 1.480469 -1.828125 1.480469 -2.128906 L 1.480469 -6.910156 C 1.480469 -7.042969 1.460938 -7.152344 1.414062 -7.242188 C 1.371094 -7.332031 1.285156 -7.414062 1.152344 -7.492188 C 1.054688 -7.542969 0.933594 -7.585938 0.785156 -7.621094 C 0.636719 -7.652344 0.515625 -7.671875 0.421875 -7.679688 L 0.421875 -8.082031 L 3.789062 -8.082031 L 3.789062 -7.679688 C 3.683594 -7.675781 3.546875 -7.65625 3.386719 -7.628906 C 3.226562 -7.597656 3.105469 -7.570312 3.03125 -7.542969 C 2.902344 -7.496094 2.816406 -7.421875 2.769531 -7.316406 C 2.726562 -7.207031 2.707031 -7.09375 2.707031 -6.96875 L 2.707031 -2.503906 C 2.707031 -2.289062 2.730469 -2.0625 2.777344 -1.824219 C 2.824219 -1.585938 2.917969 -1.367188 3.058594 -1.160156 C 3.207031 -0.953125 3.410156 -0.78125 3.664062 -0.648438 C 3.917969 -0.515625 4.265625 -0.449219 4.710938 -0.449219 C 5.128906 -0.449219 5.480469 -0.515625 5.761719 -0.648438 C 6.046875 -0.78125 6.269531 -0.957031 6.429688 -1.171875 C 6.585938 -1.378906 6.699219 -1.59375 6.761719 -1.816406 C 6.828125 -2.039062 6.859375 -2.265625 6.859375 -2.492188 L 6.859375 -5.804688 C 6.859375 -6.226562 6.828125 -6.570312 6.765625 -6.839844 C 6.707031 -7.105469 6.617188 -7.28125 6.5 -7.367188 C 6.367188 -7.460938 6.1875 -7.535156 5.957031 -7.589844 C 5.726562 -7.640625 5.550781 -7.671875 5.429688 -7.679688 L 5.429688 -8.082031 L 8.734375 -8.082031 Z "/>
</g>
<g id="glyph-0-5">
<path d="M 7.046875 -2.402344 L 6.875 0 L 0.558594 0 L 0.558594 -0.40625 C 0.648438 -0.410156 0.78125 -0.425781 0.953125 -0.445312 C 1.128906 -0.464844 1.246094 -0.488281 1.316406 -0.519531 C 1.429688 -0.566406 1.511719 -0.640625 1.5625 -0.734375 C 1.613281 -0.828125 1.640625 -0.953125 1.640625 -1.097656 L 1.640625 -6.886719 C 1.640625 -7.015625 1.617188 -7.128906 1.574219 -7.230469 C 1.53125 -7.328125 1.445312 -7.40625 1.316406 -7.46875 C 1.230469 -7.515625 1.105469 -7.558594 0.949219 -7.601562 C 0.789062 -7.644531 0.660156 -7.671875 0.558594 -7.679688 L 0.558594 -8.082031 L 3.96875 -8.082031 L 3.96875 -7.679688 C 3.863281 -7.675781 3.726562 -7.65625 3.558594 -7.621094 C 3.386719 -7.585938 3.265625 -7.558594 3.191406 -7.53125 C 3.0625 -7.484375 2.972656 -7.40625 2.925781 -7.296875 C 2.878906 -7.1875 2.855469 -7.070312 2.855469 -6.945312 L 2.855469 -1.515625 C 2.855469 -1.265625 2.867188 -1.070312 2.890625 -0.929688 C 2.914062 -0.792969 2.972656 -0.683594 3.066406 -0.609375 C 3.152344 -0.542969 3.28125 -0.496094 3.453125 -0.476562 C 3.628906 -0.453125 3.871094 -0.445312 4.179688 -0.445312 C 4.320312 -0.445312 4.46875 -0.449219 4.621094 -0.457031 C 4.773438 -0.464844 4.917969 -0.476562 5.054688 -0.5 C 5.1875 -0.523438 5.308594 -0.554688 5.421875 -0.59375 C 5.53125 -0.636719 5.613281 -0.683594 5.667969 -0.746094 C 5.824219 -0.921875 6.003906 -1.1875 6.210938 -1.539062 C 6.417969 -1.894531 6.5625 -2.183594 6.640625 -2.402344 Z "/>
</g>
<g id="glyph-0-6">
<path d="M 8.09375 0 L 4.734375 0 L 4.734375 -0.40625 C 5.03125 -0.421875 5.277344 -0.460938 5.472656 -0.519531 C 5.667969 -0.574219 5.765625 -0.644531 5.765625 -0.730469 C 5.765625 -0.761719 5.761719 -0.804688 5.753906 -0.855469 C 5.746094 -0.902344 5.734375 -0.949219 5.71875 -0.984375 L 5.050781 -2.796875 L 2.214844 -2.796875 C 2.105469 -2.53125 2.019531 -2.300781 1.953125 -2.101562 C 1.886719 -1.90625 1.828125 -1.722656 1.773438 -1.554688 C 1.726562 -1.390625 1.691406 -1.257812 1.671875 -1.15625 C 1.652344 -1.054688 1.644531 -0.96875 1.644531 -0.90625 C 1.644531 -0.753906 1.761719 -0.636719 2 -0.550781 C 2.242188 -0.46875 2.511719 -0.417969 2.8125 -0.40625 L 2.8125 0 L -0.234375 0 L -0.234375 -0.40625 C -0.136719 -0.410156 -0.0117188 -0.433594 0.136719 -0.46875 C 0.285156 -0.507812 0.40625 -0.554688 0.5 -0.617188 C 0.652344 -0.71875 0.769531 -0.824219 0.855469 -0.9375 C 0.9375 -1.050781 1.019531 -1.203125 1.097656 -1.402344 C 1.503906 -2.414062 1.953125 -3.554688 2.445312 -4.820312 C 2.933594 -6.085938 3.371094 -7.210938 3.753906 -8.199219 L 4.210938 -8.199219 L 6.90625 -1.226562 C 6.960938 -1.078125 7.027344 -0.957031 7.097656 -0.867188 C 7.171875 -0.773438 7.269531 -0.683594 7.398438 -0.597656 C 7.488281 -0.546875 7.601562 -0.5 7.742188 -0.464844 C 7.882812 -0.429688 8 -0.410156 8.09375 -0.40625 L 8.09375 0 M 4.84375 -3.304688 L 3.617188 -6.441406 L 2.410156 -3.304688 Z "/>
</g>
<g id="glyph-0-7">
</g>
<g id="glyph-0-8">
<path d="M 8.300781 -3.992188 C 8.300781 -3.304688 8.171875 -2.710938 7.914062 -2.203125 C 7.65625 -1.699219 7.316406 -1.285156 6.90625 -0.960938 C 6.488281 -0.640625 6.015625 -0.398438 5.496094 -0.238281 C 4.976562 -0.078125 4.441406 0 3.886719 0 L 0.535156 0 L 0.535156 -0.40625 C 0.644531 -0.40625 0.789062 -0.414062 0.964844 -0.4375 C 1.140625 -0.457031 1.257812 -0.480469 1.316406 -0.507812 C 1.429688 -0.554688 1.511719 -0.628906 1.5625 -0.726562 C 1.613281 -0.824219 1.640625 -0.941406 1.640625 -1.078125 L 1.640625 -6.910156 C 1.640625 -7.039062 1.617188 -7.15625 1.574219 -7.257812 C 1.53125 -7.359375 1.445312 -7.441406 1.316406 -7.503906 C 1.199219 -7.558594 1.070312 -7.601562 0.933594 -7.628906 C 0.796875 -7.65625 0.679688 -7.671875 0.582031 -7.679688 L 0.582031 -8.082031 L 4.113281 -8.082031 C 4.597656 -8.082031 5.078125 -8.007812 5.546875 -7.859375 C 6.019531 -7.707031 6.429688 -7.507812 6.777344 -7.25 C 7.253906 -6.914062 7.625 -6.472656 7.894531 -5.925781 C 8.164062 -5.378906 8.300781 -4.734375 8.300781 -3.992188 M 6.90625 -3.996094 C 6.90625 -4.539062 6.832031 -5.03125 6.6875 -5.46875 C 6.542969 -5.90625 6.332031 -6.289062 6.054688 -6.613281 C 5.792969 -6.925781 5.472656 -7.171875 5.089844 -7.347656 C 4.707031 -7.527344 4.285156 -7.617188 3.816406 -7.617188 C 3.660156 -7.617188 3.484375 -7.613281 3.289062 -7.609375 C 3.09375 -7.601562 2.949219 -7.597656 2.855469 -7.59375 L 2.855469 -1.382812 C 2.855469 -1.039062 2.953125 -0.800781 3.15625 -0.667969 C 3.355469 -0.535156 3.667969 -0.46875 4.085938 -0.46875 C 4.566406 -0.46875 4.988281 -0.550781 5.347656 -0.722656 C 5.710938 -0.894531 6.003906 -1.132812 6.226562 -1.433594 C 6.460938 -1.753906 6.632812 -2.121094 6.742188 -2.542969 C 6.851562 -2.960938 6.90625 -3.445312 6.90625 -3.996094 Z "/>
</g>
<g id="glyph-0-9">
<path d="M 7.355469 -2.382812 L 7.199219 0 L 0.488281 0 L 0.488281 -0.40625 C 0.605469 -0.410156 0.753906 -0.429688 0.945312 -0.453125 C 1.136719 -0.476562 1.257812 -0.503906 1.316406 -0.53125 C 1.4375 -0.585938 1.523438 -0.660156 1.570312 -0.75 C 1.617188 -0.84375 1.640625 -0.957031 1.640625 -1.097656 L 1.640625 -6.910156 C 1.640625 -7.035156 1.621094 -7.144531 1.578125 -7.242188 C 1.535156 -7.339844 1.449219 -7.417969 1.316406 -7.480469 C 1.214844 -7.527344 1.074219 -7.574219 0.902344 -7.609375 C 0.730469 -7.648438 0.59375 -7.671875 0.488281 -7.679688 L 0.488281 -8.082031 L 6.746094 -8.082031 L 6.746094 -6.136719 L 6.316406 -6.136719 C 6.242188 -6.425781 6.078125 -6.730469 5.824219 -7.054688 C 5.570312 -7.378906 5.332031 -7.558594 5.105469 -7.585938 C 4.988281 -7.601562 4.847656 -7.613281 4.683594 -7.621094 C 4.519531 -7.628906 4.332031 -7.632812 4.125 -7.632812 L 2.855469 -7.632812 L 2.855469 -4.421875 L 3.765625 -4.421875 C 4.058594 -4.421875 4.273438 -4.449219 4.40625 -4.503906 C 4.542969 -4.558594 4.660156 -4.648438 4.761719 -4.78125 C 4.847656 -4.890625 4.917969 -5.035156 4.976562 -5.222656 C 5.035156 -5.40625 5.074219 -5.578125 5.09375 -5.742188 L 5.519531 -5.742188 L 5.519531 -2.574219 L 5.09375 -2.574219 C 5.078125 -2.757812 5.035156 -2.949219 4.96875 -3.152344 C 4.902344 -3.355469 4.835938 -3.503906 4.761719 -3.59375 C 4.644531 -3.742188 4.511719 -3.839844 4.359375 -3.886719 C 4.210938 -3.929688 4.011719 -3.953125 3.765625 -3.953125 L 2.855469 -3.953125 L 2.855469 -1.53125 C 2.855469 -1.289062 2.871094 -1.097656 2.90625 -0.957031 C 2.9375 -0.816406 3.007812 -0.710938 3.105469 -0.636719 C 3.203125 -0.566406 3.339844 -0.519531 3.507812 -0.5 C 3.679688 -0.476562 3.921875 -0.46875 4.238281 -0.46875 C 4.363281 -0.46875 4.527344 -0.46875 4.734375 -0.46875 C 4.9375 -0.46875 5.113281 -0.476562 5.253906 -0.488281 C 5.398438 -0.503906 5.546875 -0.53125 5.699219 -0.574219 C 5.851562 -0.613281 5.960938 -0.667969 6.027344 -0.734375 C 6.203125 -0.917969 6.386719 -1.195312 6.578125 -1.5625 C 6.769531 -1.933594 6.890625 -2.207031 6.945312 -2.382812 Z "/>
</g>
<g id="glyph-0-10">
<path d="M 8.925781 0 L 5.570312 0 L 5.570312 -0.40625 C 5.664062 -0.410156 5.792969 -0.421875 5.96875 -0.4375 C 6.140625 -0.453125 6.257812 -0.476562 6.324219 -0.507812 C 6.4375 -0.550781 6.519531 -0.621094 6.574219 -0.714844 C 6.628906 -0.808594 6.652344 -0.929688 6.652344 -1.078125 L 6.652344 -3.953125 L 2.855469 -3.953125 L 2.855469 -1.140625 C 2.855469 -1.007812 2.875 -0.894531 2.917969 -0.804688 C 2.964844 -0.710938 3.050781 -0.632812 3.179688 -0.5625 C 3.242188 -0.53125 3.359375 -0.496094 3.523438 -0.460938 C 3.6875 -0.425781 3.820312 -0.410156 3.914062 -0.40625 L 3.914062 0 L 0.558594 0 L 0.558594 -0.40625 C 0.648438 -0.410156 0.78125 -0.421875 0.953125 -0.4375 C 1.128906 -0.453125 1.246094 -0.476562 1.308594 -0.507812 C 1.425781 -0.550781 1.507812 -0.621094 1.5625 -0.714844 C 1.613281 -0.808594 1.640625 -0.929688 1.640625 -1.078125 L 1.640625 -6.910156 C 1.640625 -7.03125 1.617188 -7.144531 1.566406 -7.242188 C 1.515625 -7.34375 1.433594 -7.421875 1.308594 -7.480469 C 1.207031 -7.527344 1.082031 -7.574219 0.9375 -7.609375 C 0.789062 -7.648438 0.664062 -7.671875 0.558594 -7.679688 L 0.558594 -8.082031 L 3.914062 -8.082031 L 3.914062 -7.679688 C 3.808594 -7.675781 3.675781 -7.65625 3.523438 -7.628906 C 3.371094 -7.597656 3.253906 -7.570312 3.179688 -7.542969 C 3.050781 -7.496094 2.964844 -7.421875 2.917969 -7.3125 C 2.875 -7.207031 2.855469 -7.09375 2.855469 -6.96875 L 2.855469 -4.460938 L 6.652344 -4.460938 L 6.652344 -6.910156 C 6.652344 -7.03125 6.628906 -7.144531 6.578125 -7.242188 C 6.53125 -7.34375 6.445312 -7.421875 6.324219 -7.480469 C 6.21875 -7.527344 6.097656 -7.574219 5.949219 -7.609375 C 5.804688 -7.648438 5.675781 -7.671875 5.570312 -7.679688 L 5.570312 -8.082031 L 8.925781 -8.082031 L 8.925781 -7.679688 C 8.820312 -7.675781 8.691406 -7.65625 8.535156 -7.628906 C 8.382812 -7.597656 8.269531 -7.570312 8.191406 -7.542969 C 8.0625 -7.496094 7.976562 -7.421875 7.933594 -7.3125 C 7.890625 -7.207031 7.867188 -7.09375 7.867188 -6.96875 L 7.867188 -1.140625 C 7.867188 -1.007812 7.890625 -0.894531 7.933594 -0.804688 C 7.976562 -0.710938 8.0625 -0.632812 8.191406 -0.5625 C 8.257812 -0.53125 8.371094 -0.496094 8.535156 -0.460938 C 8.703125 -0.425781 8.832031 -0.410156 8.925781 -0.40625 Z "/>
</g>
<g id="glyph-0-11">
<path d="M 7.085938 -7.125 C 7.445312 -6.753906 7.722656 -6.304688 7.925781 -5.777344 C 8.125 -5.253906 8.226562 -4.671875 8.226562 -4.03125 C 8.226562 -3.390625 8.125 -2.808594 7.917969 -2.285156 C 7.714844 -1.761719 7.429688 -1.3125 7.0625 -0.945312 C 6.710938 -0.582031 6.300781 -0.300781 5.832031 -0.101562 C 5.367188 0.09375 4.867188 0.195312 4.339844 0.195312 C 3.777344 0.195312 3.257812 0.0898438 2.78125 -0.121094 C 2.304688 -0.332031 1.898438 -0.625 1.554688 -1.003906 C 1.214844 -1.371094 0.945312 -1.816406 0.75 -2.34375 C 0.554688 -2.871094 0.457031 -3.433594 0.457031 -4.03125 C 0.457031 -4.691406 0.558594 -5.277344 0.761719 -5.789062 C 0.96875 -6.304688 1.25 -6.75 1.613281 -7.125 C 1.96875 -7.5 2.382812 -7.785156 2.855469 -7.980469 C 3.328125 -8.179688 3.824219 -8.277344 4.339844 -8.277344 C 4.875 -8.277344 5.382812 -8.175781 5.855469 -7.976562 C 6.332031 -7.773438 6.742188 -7.492188 7.085938 -7.125 M 6.238281 -1.394531 C 6.449219 -1.742188 6.605469 -2.132812 6.703125 -2.570312 C 6.800781 -3.007812 6.847656 -3.492188 6.847656 -4.03125 C 6.847656 -4.585938 6.792969 -5.097656 6.683594 -5.558594 C 6.578125 -6.023438 6.417969 -6.417969 6.210938 -6.746094 C 6 -7.066406 5.738281 -7.320312 5.421875 -7.5 C 5.109375 -7.679688 4.746094 -7.769531 4.339844 -7.769531 C 3.886719 -7.769531 3.496094 -7.664062 3.179688 -7.457031 C 2.859375 -7.246094 2.597656 -6.96875 2.398438 -6.621094 C 2.207031 -6.285156 2.066406 -5.894531 1.972656 -5.445312 C 1.878906 -4.996094 1.835938 -4.527344 1.835938 -4.03125 C 1.835938 -3.484375 1.882812 -2.992188 1.984375 -2.550781 C 2.082031 -2.113281 2.238281 -1.71875 2.449219 -1.378906 C 2.65625 -1.042969 2.914062 -0.785156 3.222656 -0.59375 C 3.535156 -0.40625 3.90625 -0.3125 4.339844 -0.3125 C 4.746094 -0.3125 5.113281 -0.410156 5.441406 -0.597656 C 5.765625 -0.789062 6.03125 -1.054688 6.238281 -1.394531 Z "/>
</g>
<g id="glyph-0-12">
<path d="M 8.851562 -7.679688 C 8.746094 -7.675781 8.582031 -7.644531 8.363281 -7.585938 C 8.140625 -7.53125 7.984375 -7.472656 7.890625 -7.410156 C 7.753906 -7.316406 7.660156 -7.132812 7.613281 -6.863281 C 7.566406 -6.59375 7.542969 -6.253906 7.542969 -5.839844 L 7.542969 0.078125 L 7.046875 0.078125 L 2.148438 -6.535156 L 2.148438 -2.363281 C 2.148438 -1.898438 2.175781 -1.539062 2.234375 -1.289062 C 2.292969 -1.035156 2.386719 -0.859375 2.507812 -0.75 C 2.59375 -0.667969 2.773438 -0.589844 3.046875 -0.519531 C 3.320312 -0.445312 3.5 -0.410156 3.589844 -0.40625 L 3.589844 0 L 0.273438 0 L 0.273438 -0.40625 C 0.375 -0.410156 0.546875 -0.449219 0.792969 -0.515625 C 1.035156 -0.582031 1.1875 -0.640625 1.246094 -0.695312 C 1.378906 -0.800781 1.472656 -0.964844 1.519531 -1.183594 C 1.570312 -1.402344 1.59375 -1.773438 1.59375 -2.300781 L 1.59375 -6.285156 C 1.59375 -6.457031 1.566406 -6.632812 1.503906 -6.808594 C 1.441406 -6.980469 1.363281 -7.117188 1.257812 -7.210938 C 1.121094 -7.335938 0.9375 -7.445312 0.703125 -7.535156 C 0.46875 -7.621094 0.28125 -7.671875 0.136719 -7.679688 L 0.136719 -8.082031 L 2.445312 -8.082031 L 6.988281 -1.921875 L 6.988281 -5.765625 C 6.988281 -6.234375 6.960938 -6.597656 6.898438 -6.851562 C 6.835938 -7.101562 6.75 -7.269531 6.636719 -7.355469 C 6.53125 -7.425781 6.355469 -7.496094 6.117188 -7.566406 C 5.875 -7.632812 5.691406 -7.671875 5.566406 -7.679688 L 5.566406 -8.082031 L 8.851562 -8.082031 Z "/>
</g>
</g>
</defs>
<g fill="rgb(94.117647%, 67.45098%, 37.254902%)" fill-opacity="1">
<use xlink:href="#glyph-0-0" x="30" y="30.697266"/>
<use xlink:href="#glyph-0-1" x="37" y="30.697266"/>
<use xlink:href="#glyph-0-2" x="46" y="30.697266"/>
<use xlink:href="#glyph-0-3" x="54" y="30.697266"/>
<use xlink:href="#glyph-0-4" x="65" y="30.697266"/>
<use xlink:href="#glyph-0-5" x="74" y="30.697266"/>
<use xlink:href="#glyph-0-6" x="81" y="30.697266"/>
<use xlink:href="#glyph-0-7" x="89" y="30.697266"/>
<use xlink:href="#glyph-0-8" x="92" y="30.697266"/>
<use xlink:href="#glyph-0-9" x="101" y="30.697266"/>
<use xlink:href="#glyph-0-7" x="109" y="30.697266"/>
<use xlink:href="#glyph-0-10" x="112" y="30.697266"/>
<use xlink:href="#glyph-0-9" x="122" y="30.697266"/>
<use xlink:href="#glyph-0-2" x="130" y="30.697266"/>
<use xlink:href="#glyph-0-11" x="138" y="30.697266"/>
<use xlink:href="#glyph-0-12" x="147" y="30.697266"/>
</g>
</svg>
